<svg width="1910" height="426" viewBox="0 0 1910 426" fill="none" xmlns="http://www.w3.org/2000/svg">
<path d="M0.587891 128.148C0.587891 104.449 19.8003 85.2363 43.5 85.2363H237.486C261.186 85.2363 280.398 104.449 280.398 128.148V322.135C280.398 345.834 261.186 365.047 237.486 365.047H43.5C19.8003 365.047 0.587891 345.834 0.587891 322.135V128.148Z" fill="#3142DC"/>
<path d="M0.587891 132.263C0.587891 106.291 21.6426 85.2363 47.6148 85.2363H233.371C259.344 85.2363 280.398 106.291 280.398 132.263V318.02C280.398 343.992 259.344 365.047 233.371 365.047H47.6148C21.6426 365.047 0.587891 343.992 0.587891 318.02V132.263Z" fill="#3142DC"/>
<path d="M60.2488 78.3435C66.9709 53.2562 92.7576 38.3683 117.845 45.0904L297.272 93.1677C322.359 99.8899 337.247 125.676 330.525 150.764L282.448 330.191C275.725 355.278 249.939 370.166 224.852 363.444L45.4246 315.366C20.3373 308.644 5.44938 282.858 12.1715 257.77L60.2488 78.3435Z" fill="#6572E3"/>
<path d="M129.324 40.7265C142.31 18.2339 171.072 10.5273 193.564 23.5135L354.434 116.392C376.927 129.378 384.633 158.139 371.647 180.632L278.769 341.502C265.783 363.994 237.021 371.701 214.529 358.715L53.659 265.836C31.1663 252.85 23.4598 224.089 36.4459 201.596L129.324 40.7265Z" fill="#9DA5F0"/>
<path d="M146.371 191.047C146.371 159.231 172.163 133.439 203.979 133.439V133.439C235.795 133.439 261.587 159.231 261.587 191.047V191.047C261.587 222.863 235.795 248.655 203.979 248.655V248.655C172.163 248.655 146.371 222.863 146.371 191.047V191.047Z" fill="#3142DC"/>
<path d="M1863.08 367.461C1849.35 367.461 1837.65 364.98 1827.98 360.02C1818.3 354.976 1810.94 347.204 1805.9 336.703C1800.86 326.202 1798.34 312.767 1798.34 296.396C1798.34 279.446 1801.19 265.638 1806.89 254.972C1812.68 244.223 1820.66 236.327 1830.83 231.283C1841.08 226.24 1852.95 223.718 1866.42 223.718C1876.02 223.718 1884.28 224.669 1891.23 226.57C1898.26 228.389 1904.38 230.58 1909.58 233.144L1898.42 262.413C1892.47 260.015 1886.93 258.072 1881.8 256.584C1876.68 255.013 1871.55 254.228 1866.42 254.228C1859.81 254.228 1854.31 255.799 1849.93 258.94C1845.55 262 1842.28 266.63 1840.13 272.831C1837.98 279.032 1836.91 286.804 1836.91 296.147C1836.91 305.325 1838.06 312.932 1840.38 318.968C1842.69 325.004 1846.04 329.51 1850.43 332.486C1854.81 335.38 1860.14 336.827 1866.42 336.827C1874.28 336.827 1881.27 335.794 1887.38 333.727C1893.5 331.577 1899.46 328.6 1905.24 324.797V357.167C1899.46 360.805 1893.38 363.41 1887.01 364.98C1880.73 366.634 1872.75 367.461 1863.08 367.461Z" fill="white"/>
<path d="M1766.96 226.322V364.98H1729.13V226.322H1766.96ZM1748.11 172C1753.73 172 1758.57 173.323 1762.62 175.969C1766.67 178.532 1768.69 183.369 1768.69 190.479C1768.69 197.507 1766.67 202.386 1762.62 205.114C1758.57 207.76 1753.73 209.083 1748.11 209.083C1742.4 209.083 1737.52 207.76 1733.47 205.114C1729.5 202.386 1727.52 197.507 1727.52 190.479C1727.52 183.369 1729.5 178.532 1733.47 175.969C1737.52 173.323 1742.4 172 1748.11 172Z" fill="white"/>
<path d="M1626.07 426C1606.72 426 1591.92 422.61 1581.67 415.83C1571.5 409.133 1566.41 399.707 1566.41 387.553C1566.41 379.202 1569.02 372.215 1574.23 366.593C1579.43 360.97 1587.08 356.96 1597.17 354.562C1593.28 352.909 1589.89 350.222 1587 346.501C1584.11 342.698 1582.66 338.688 1582.66 334.471C1582.66 329.179 1584.19 324.797 1587.25 321.324C1590.31 317.769 1594.73 314.296 1600.52 310.906C1593.24 307.764 1587.45 302.721 1583.16 295.775C1578.94 288.83 1576.83 280.645 1576.83 271.219C1576.83 261.132 1579.02 252.574 1583.4 245.546C1587.87 238.435 1594.32 233.02 1602.75 229.299C1611.27 225.578 1621.6 223.718 1633.76 223.718C1636.32 223.718 1639.3 223.883 1642.69 224.214C1646.08 224.545 1649.18 224.917 1651.99 225.33C1654.88 225.743 1656.83 226.074 1657.82 226.322H1706.19V245.546L1684.48 251.127C1686.47 254.186 1687.96 257.452 1688.95 260.925C1689.94 264.397 1690.44 268.077 1690.44 271.963C1690.44 286.846 1685.23 298.463 1674.81 306.813C1664.47 315.082 1650.09 319.216 1631.65 319.216C1627.27 318.968 1623.13 318.637 1619.25 318.224C1617.34 319.712 1615.9 321.283 1614.91 322.937C1613.91 324.59 1613.42 326.326 1613.42 328.146C1613.42 329.965 1614.16 331.494 1615.65 332.734C1617.22 333.892 1619.54 334.801 1622.59 335.463C1625.74 336.042 1629.62 336.331 1634.25 336.331H1657.82C1673.03 336.331 1684.61 339.597 1692.54 346.129C1700.56 352.661 1704.57 362.252 1704.57 374.902C1704.57 391.108 1697.79 403.676 1684.23 412.605C1670.76 421.535 1651.37 426 1626.07 426ZM1627.68 401.319C1636.69 401.319 1644.42 400.451 1650.87 398.715C1657.4 397.061 1662.41 394.663 1665.88 391.521C1669.35 388.462 1671.09 384.783 1671.09 380.483C1671.09 377.011 1670.05 374.241 1667.99 372.174C1666 370.189 1662.94 368.784 1658.81 367.957C1654.76 367.13 1649.55 366.717 1643.18 366.717H1623.59C1618.96 366.717 1614.78 367.461 1611.06 368.949C1607.42 370.438 1604.53 372.505 1602.38 375.15C1600.23 377.879 1599.15 381.021 1599.15 384.576C1599.15 389.785 1601.63 393.878 1606.6 396.854C1611.64 399.831 1618.67 401.319 1627.68 401.319ZM1633.76 296.147C1640.87 296.147 1646.08 293.956 1649.38 289.574C1652.69 285.192 1654.34 279.239 1654.34 271.715C1654.34 263.364 1652.61 257.121 1649.14 252.987C1645.75 248.771 1640.62 246.662 1633.76 246.662C1626.81 246.662 1621.6 248.771 1618.13 252.987C1614.66 257.121 1612.92 263.364 1612.92 271.715C1612.92 279.239 1614.62 285.192 1618.01 289.574C1621.48 293.956 1626.73 296.147 1633.76 296.147Z" fill="white"/>
<path d="M1488.77 223.47C1507.38 223.47 1521.64 227.521 1531.56 235.624C1541.48 243.727 1546.44 256.047 1546.44 272.583V364.98H1520.03L1512.71 346.129H1511.72C1507.75 351.09 1503.7 355.141 1499.56 358.283C1495.43 361.425 1490.68 363.74 1485.3 365.229C1479.93 366.717 1473.39 367.461 1465.71 367.461C1457.52 367.461 1450.16 365.89 1443.63 362.748C1437.18 359.606 1432.09 354.811 1428.37 348.361C1424.65 341.829 1422.79 333.561 1422.79 323.557C1422.79 308.839 1427.96 298.008 1438.3 291.062C1448.63 284.035 1464.13 280.148 1484.8 279.404L1508.87 278.66V272.583C1508.87 265.307 1506.96 259.974 1503.16 256.584C1499.36 253.194 1494.07 251.499 1487.29 251.499C1480.59 251.499 1474.01 252.45 1467.57 254.352C1461.12 256.253 1454.67 258.651 1448.22 261.545L1435.69 235.996C1443.05 232.11 1451.28 229.051 1460.37 226.818C1469.55 224.586 1479.02 223.47 1488.77 223.47ZM1508.87 300.736L1494.23 301.232C1481.99 301.563 1473.48 303.754 1468.68 307.806C1463.97 311.857 1461.61 317.19 1461.61 323.805C1461.61 329.592 1463.31 333.727 1466.7 336.207C1470.09 338.605 1474.51 339.804 1479.97 339.804C1488.07 339.804 1494.89 337.406 1500.43 332.61C1506.05 327.815 1508.87 320.993 1508.87 312.146V300.736Z" fill="white"/>
<path d="M1272.1 364.98L1228.45 222.726H1227.33C1227.5 226.116 1227.75 231.242 1228.08 238.104C1228.49 244.884 1228.86 252.119 1229.19 259.809C1229.52 267.498 1229.69 274.443 1229.69 280.645V364.98H1195.33V183.658H1247.67L1290.58 322.316H1291.33L1336.84 183.658H1389.18V364.98H1353.34V279.156C1353.34 273.451 1353.42 266.878 1353.59 259.437C1353.84 251.995 1354.13 244.926 1354.46 238.229C1354.79 231.449 1355.03 226.364 1355.2 222.974H1354.08L1307.33 364.98H1272.1Z" fill="white"/>
<path d="M1161.1 295.403C1161.1 306.979 1159.53 317.231 1156.39 326.161C1153.33 335.091 1148.83 342.656 1142.87 348.857C1137 354.976 1129.89 359.606 1121.54 362.748C1113.27 365.89 1103.93 367.461 1093.51 367.461C1083.75 367.461 1074.78 365.89 1066.6 362.748C1058.49 359.606 1051.43 354.976 1045.39 348.857C1039.44 342.656 1034.81 335.091 1031.5 326.161C1028.27 317.231 1026.66 306.979 1026.66 295.403C1026.66 280.024 1029.39 267.002 1034.85 256.336C1040.3 245.67 1048.08 237.567 1058.16 232.027C1068.25 226.488 1080.28 223.718 1094.25 223.718C1107.24 223.718 1118.73 226.488 1128.73 232.027C1138.82 237.567 1146.72 245.67 1152.42 256.336C1158.21 267.002 1161.1 280.024 1161.1 295.403ZM1065.23 295.403C1065.23 304.498 1066.23 312.146 1068.21 318.348C1070.19 324.549 1073.29 329.22 1077.51 332.362C1081.73 335.504 1087.23 337.075 1094.01 337.075C1100.7 337.075 1106.12 335.504 1110.25 332.362C1114.47 329.22 1117.53 324.549 1119.43 318.348C1121.42 312.146 1122.41 304.498 1122.41 295.403C1122.41 286.226 1121.42 278.619 1119.43 272.583C1117.53 266.465 1114.47 261.876 1110.25 258.816C1106.04 255.757 1100.54 254.228 1093.76 254.228C1083.75 254.228 1076.48 257.659 1071.93 264.521C1067.47 271.384 1065.23 281.678 1065.23 295.403Z" fill="white"/>
<path d="M983.13 337.323C987.264 337.323 991.274 336.91 995.16 336.083C999.129 335.256 1003.06 334.223 1006.94 332.982V361.136C1002.89 362.955 997.847 364.443 991.812 365.601C985.858 366.841 979.326 367.461 972.216 367.461C963.948 367.461 956.506 366.138 949.892 363.492C943.36 360.764 938.192 356.092 934.389 349.478C930.668 342.78 928.808 333.479 928.808 321.572V254.724H910.7V238.725L931.536 226.074L942.45 196.805H966.635V226.322H1005.45V254.724H966.635V321.572C966.635 326.864 968.123 330.833 971.1 333.479C974.159 336.042 978.169 337.323 983.13 337.323Z" fill="white"/>
<path d="M893.461 295.403C893.461 306.979 891.89 317.231 888.748 326.161C885.689 335.091 881.183 342.656 875.229 348.857C869.359 354.976 862.248 359.606 853.897 362.748C845.629 365.89 836.286 367.461 825.868 367.461C816.112 367.461 807.141 365.89 798.955 362.748C790.852 359.606 783.783 354.976 777.747 348.857C771.794 342.656 767.164 335.091 763.856 326.161C760.632 317.231 759.02 306.979 759.02 295.403C759.02 280.024 761.748 267.002 767.205 256.336C772.662 245.67 780.434 237.567 790.521 232.027C800.609 226.488 812.639 223.718 826.612 223.718C839.593 223.718 851.086 226.488 861.091 232.027C871.178 237.567 879.074 245.67 884.779 256.336C890.567 267.002 893.461 280.024 893.461 295.403ZM797.591 295.403C797.591 304.498 798.583 312.146 800.567 318.348C802.552 324.549 805.652 329.22 809.869 332.362C814.086 335.504 819.584 337.075 826.364 337.075C833.062 337.075 838.477 335.504 842.611 332.362C846.828 329.22 849.887 324.549 851.789 318.348C853.773 312.146 854.766 304.498 854.766 295.403C854.766 286.226 853.773 278.619 851.789 272.583C849.887 266.465 846.828 261.876 842.611 258.816C838.395 255.757 832.896 254.228 826.116 254.228C816.112 254.228 808.836 257.659 804.288 264.521C799.823 271.384 797.591 281.678 797.591 295.403Z" fill="white"/>
<path d="M638.345 172V211.315C638.345 218.178 638.097 224.71 637.601 230.911C637.187 237.112 636.856 241.494 636.608 244.058H638.593C641.569 239.262 645.083 235.376 649.135 232.399C653.269 229.423 657.816 227.232 662.777 225.826C667.738 224.421 673.071 223.718 678.776 223.718C688.781 223.718 697.504 225.495 704.945 229.051C712.387 232.523 718.174 238.022 722.309 245.546C726.443 252.987 728.51 262.661 728.51 274.567V364.98H690.683V283.993C690.683 274.071 688.864 266.589 685.226 261.545C681.588 256.501 675.965 253.979 668.358 253.979C660.752 253.979 654.757 255.757 650.375 259.312C645.993 262.785 642.892 267.953 641.073 274.815C639.254 281.595 638.345 289.905 638.345 299.744V364.98H600.518V172H638.345Z" fill="white"/>
<path d="M501.919 183.658C525.318 183.658 542.392 188.702 553.141 198.789C563.889 208.794 569.264 222.602 569.264 240.213C569.264 248.15 568.065 255.757 565.667 263.033C563.269 270.227 559.342 276.634 553.885 282.257C548.51 287.879 541.317 292.344 532.305 295.651C523.292 298.876 512.172 300.488 498.942 300.488H482.447V364.98H444V183.658H501.919ZM499.935 215.16H482.447V268.986H495.098C502.291 268.986 508.534 268.035 513.825 266.134C519.117 264.232 523.21 261.256 526.104 257.204C528.997 253.153 530.444 247.944 530.444 241.577C530.444 232.647 527.964 226.033 523.003 221.733C518.042 217.351 510.353 215.16 499.935 215.16Z" fill="white"/>
</svg>
