<svg width="20" height="21" viewBox="0 0 20 21" fill="none" xmlns="http://www.w3.org/2000/svg">
<path fill-rule="evenodd" clip-rule="evenodd" d="M13.5518 5.0202C13.5518 6.95317 11.9446 8.52016 9.962 8.52016C7.97946 8.52016 6.37229 6.95317 6.37229 5.0202C6.37229 3.08724 7.97946 1.52025 9.962 1.52025C11.9446 1.52025 13.5518 3.08724 13.5518 5.0202ZM15.0903 5.0202C15.0903 7.7816 12.7943 10.0202 9.962 10.0202C7.12978 10.0202 4.83381 7.7816 4.83381 5.0202C4.83381 2.2588 7.12978 0.0202494 9.962 0.0202494C12.7943 0.0202494 15.0903 2.2588 15.0903 5.0202ZM8.97434 11.2704C4.01795 11.2704 0 15.1879 0 20.0202H1.53847C1.53847 16.0162 4.86763 12.7704 8.97434 12.7704H11.0256C15.1324 12.7704 18.4615 16.0162 18.4615 20.0202H20C20 15.1879 15.982 11.2704 11.0256 11.2704H8.97434Z" fill="white"/>
</svg>
