<svg width="20" height="18" viewBox="0 0 20 18" fill="none" xmlns="http://www.w3.org/2000/svg">
<path fill-rule="evenodd" clip-rule="evenodd" d="M11.3823 0.9243C12.3238 0.302258 13.5842 -0.181147 15.0705 0.0658445C18.9294 0.707075 20.136 4.08176 19.9896 6.22318C19.8648 8.83258 18.136 11.2816 16.1853 13.2471C14.2095 15.2379 11.8854 16.8526 10.3451 17.7898L9.9996 18L9.65553 17.7875C6.96378 16.1246 5.01507 14.4553 3.63574 13.0613C0.762747 10.1578 0.0555751 7.68489 0.00351353 6.20744C-0.0783772 3.88347 1.26113 0.491862 5.08226 0.0415681C7.44877 -0.237308 9.11505 1.16985 9.99439 2.11708C10.3439 1.73812 10.811 1.30175 11.3823 0.9243ZM12.1098 2.05796C11.3498 2.56003 10.8011 3.20522 10.5323 3.56258L10.0262 4.23552L9.49096 3.5862C8.85888 2.81942 7.42175 1.12777 5.23608 1.38534C2.35048 1.7254 1.26903 4.25852 1.33599 6.1591C1.37405 7.23896 1.90193 9.39966 4.57668 12.1028C5.82803 13.3674 7.58702 14.8855 10.0042 16.4164C11.4749 15.4926 13.5116 14.0345 15.2457 12.2873C17.1429 10.3756 18.5612 8.23468 18.6582 6.15135L18.6585 6.1433L18.659 6.13528C18.7763 4.46396 17.837 1.8964 14.855 1.40087C13.7904 1.22395 12.864 1.55972 12.1098 2.05796Z" fill="white"/>
</svg>
