<svg width="20" height="21" viewBox="0 0 20 21" fill="none" xmlns="http://www.w3.org/2000/svg">
<path fill-rule="evenodd" clip-rule="evenodd" d="M15.2198 6.47692V4.99147C15.2198 2.24594 12.8827 0.0202491 9.99999 0.0202494C7.11721 0.0202496 4.78026 2.24594 4.78026 4.99146V6.47692H0V15.2583C0 17.8882 2.23857 20.0202 5 20.0202H15C17.7614 20.0202 20 17.8882 20 15.2583V6.47692H15.2198ZM13.7197 8.293C13.7197 8.6875 14.0555 9.0073 14.4697 9.0073C14.884 9.0073 15.2198 8.6875 15.2198 8.293V7.90551H18.5V15.2583C18.5 17.0992 16.933 18.5917 15 18.5917H5C3.067 18.5917 1.5 17.0992 1.5 15.2583V7.90551H4.78026V8.293C4.78026 8.6875 5.11605 9.0073 5.53026 9.0073C5.94448 9.0073 6.28026 8.6875 6.28026 8.293V7.90551H13.7197V8.293ZM6.28026 6.47692H13.7197V4.99147C13.7197 3.03492 12.0543 1.44884 9.99999 1.44884C7.94564 1.44884 6.28026 3.03492 6.28026 4.99146V6.47692Z" fill="white"/>
</svg>
